<?xml version="1.0" encoding="utf-8"?>
<!-- Generator: Adobe Illustrator 16.0.0, SVG Export Plug-In . SVG Version: 6.00 Build 0)  -->
<!DOCTYPE svg PUBLIC "-//W3C//DTD SVG 1.1//EN" "http://www.w3.org/Graphics/SVG/1.1/DTD/svg11.dtd">
<svg version="1.1" id="图层_1" xmlns="http://www.w3.org/2000/svg" xmlns:xlink="http://www.w3.org/1999/xlink" x="0px" y="0px"
	 width="605px" height="255px" viewBox="0 0 605 255" enable-background="new 0 0 605 255" xml:space="preserve">
<g id="svg_2" transform="matrix(1.53631, 0, 0, 1.53631, -71.324, -69.4492)">
	<g id="svg_7">
		<g id="svg_8">
			<path id="svg_9" fill="#FFFFFF" d="M115.7,211.075c-33.594-0.576-62.097-26.45-65.137-60.619
				c-2.956-33.76,19.878-63.822,52.077-70.804c-26.778,11.499-44.355,39.098-41.644,69.654
				C63.706,180.436,86.623,204.995,115.7,211.075z"/>
		</g>
		<g id="svg_10">
			<path id="svg_11" fill="#FFFFFF" d="M165.722,202.04c-29.98,15.113-67.271,5.421-85.835-23.493
				c-18.317-28.501-12.074-65.711,13.307-86.82c-18.4,22.587-21.191,55.196-4.6,81.07c16.838,26.286,48.544,37.291,77.128,29.241
				V202.04z"/>
		</g>
		<g id="svg_12">
			<polygon id="svg_13" fill="#FFFFFF" points="126.131,45.318 140.342,59.281 158.002,50.164 149.13,67.988 163.341,81.952 
				143.627,78.995 134.674,96.818 131.388,77.106 111.675,74.148 129.418,64.949 			"/>
		</g>
		<g id="svg_14">
			<path id="svg_15" fill="#FFFFFF" d="M121.778,53.285l1.725,10.268c-0.493,0-1.068,0-1.561,0
				c-39.919,0-72.528,30.966-75.157,70.146c-0.081-1.643-0.164-3.368-0.164-5.01C46.54,87.045,80.217,53.367,121.778,53.285z"/>
		</g>
		<g id="svg_16">
			<path id="svg_17" fill="#FFFFFF" d="M193.24,104.376c-7.475-13.225-24.642-26.614-38.36-33.266l4.025-8.051
				C174.923,72.013,187.243,86.715,193.24,104.376z"/>
		</g>
	</g>
</g>
<g>
	<path fill="#FFFFFF" d="M122.92,167.934l-2.368-13.451c5.841-0.504,11.62-1.072,17.335-1.705v-12.125h-17.24v-12.125h17.24v-9.331
		l-13.356,0.995c-0.253-2.905-0.821-6.946-1.705-12.125c14.146-0.758,27.723-2.084,40.732-3.979l2.937,11.84
		c-4.579,0.695-9.441,1.326-14.588,1.896v10.704h18.377l-1.231-26.901h13.451c0.189,9.188,0.489,18.156,0.9,26.901h31.118v12.125
		h-30.549c0.442,7.23,1.121,13.342,2.037,18.33c5.557-5.146,10.546-10.909,14.967-17.289l10.136,8.242
		c-6.221,7.988-13.309,15.282-21.266,21.881c2.526,6.033,5.368,9.047,8.525,9.047c0.41,0,0.86-0.109,1.35-0.331
		c0.489-0.22,1.144-1.941,1.965-5.162c0.821-3.222,1.563-7.12,2.226-11.699c4.42,2.906,8.272,5.054,11.557,6.44
		c-1.8,9.537-3.836,15.994-6.109,19.373c-2.273,3.377-5.447,5.066-9.521,5.066c-9.094,0-16.041-4.83-20.84-14.492
		c-5.336,3.662-11.02,7.104-17.051,10.324c-1.958-3.535-4.547-7.23-7.768-11.082c7.452-3.127,14.319-6.884,20.603-11.273
		c-1.769-7.071-3.031-16.196-3.789-27.375h-19.087v10.468c5.431-0.694,10.799-1.437,16.104-2.228
		c-0.189,2.779-0.284,5.321-0.284,7.627c0,1.832,0.063,3.521,0.189,5.066l-16.009,1.99v18.85c0,3.475-0.774,6.135-2.321,7.981
		s-4.374,2.92-8.478,3.221c-4.105,0.3-8.904,0.45-14.398,0.45c-1.137-5.559-2.337-9.727-3.6-12.504
		c3.063,0.253,6.188,0.379,9.378,0.379l1.895,0.047c1.137,0,2.005-0.402,2.605-1.208c0.6-0.806,0.9-2.06,0.9-3.765v-11.463
		L122.92,167.934z M193.586,103.898c7.325,5.937,12.851,10.735,16.577,14.398c-3.663,3.347-6.631,6.188-8.904,8.525
		c-4.61-5.179-9.852-10.199-15.725-15.063L193.586,103.898z"/>
	<path fill="#FFFFFF" d="M235.36,101.625l14.114,2.178l-4.263,12.883h16.104v18.473c5.083-8.525,9.946-19.767,14.588-33.723
		l13.072,3.41c-1.39,4.199-2.874,8.305-4.452,12.314h24.439l-1.089,54.515c-0.159,5.873-0.648,9.986-1.469,12.339
		c-0.821,2.353-2.102,4.271-3.836,5.754c-1.737,1.483-4.161,2.494-7.271,3.031c-3.11,0.536-9.892,0.805-20.343,0.805
		c-0.947-5.558-2.147-10.324-3.6-14.303c4.673,0.379,9.646,0.568,14.92,0.568c1.516,0,2.825-0.174,3.931-0.521
		c1.104-0.347,2.013-0.875,2.724-1.587c0.71-0.71,1.191-1.507,1.444-2.392c0.252-0.885,0.457-4.768,0.616-11.651l0.426-19.372
		c0.126-6.029,0.189-10.924,0.189-14.682h-16.482c-2.084,4.421-4.295,8.715-6.631,12.883c-3-1.958-6.726-3.898-11.178-5.826v56.41
		h-13.167v-6.82h-13.451v7.39H221.53v-77.014h9.994C233.355,110.498,234.634,105.478,235.36,101.625z M248.148,129.096h-13.451
		v16.197h13.451V129.096z M234.697,173.9h13.451v-16.197h-13.451V173.9z M276.188,141.031c4.547,5.431,9.44,12.029,14.683,19.797
		l-11.936,7.957c-4.8-7.893-9.378-14.618-13.735-20.176L276.188,141.031z"/>
	<path fill="#FFFFFF" d="M324.593,194.646v-87.527h74.646v87.527h-13.451v-6.441h-47.742v6.441H324.593z M385.786,119.623h-47.742
		v10.42h47.742V119.623z M338.044,152.588h47.742v-10.42h-47.742V152.588z M338.044,175.701h47.742v-10.988h-47.742V175.701z"/>
	<path fill="#FFFFFF" d="M429.36,101.625l14.113,2.178l-4.263,12.883h16.104v18.473c5.083-8.525,9.945-19.767,14.588-33.723
		l13.071,3.41c-1.39,4.199-2.874,8.305-4.451,12.314h24.438l-1.089,54.515c-0.159,5.873-0.648,9.986-1.469,12.339
		c-0.821,2.353-2.102,4.271-3.836,5.754c-1.737,1.483-4.161,2.494-7.271,3.031c-3.109,0.536-9.892,0.805-20.343,0.805
		c-0.947-5.558-2.147-10.324-3.6-14.303c4.673,0.379,9.646,0.568,14.92,0.568c1.516,0,2.824-0.174,3.931-0.521
		c1.104-0.347,2.013-0.875,2.724-1.587c0.71-0.71,1.191-1.507,1.444-2.392c0.252-0.885,0.457-4.768,0.616-11.651l0.426-19.372
		c0.126-6.029,0.189-10.924,0.189-14.682h-16.482c-2.084,4.421-4.295,8.715-6.631,12.883c-3-1.958-6.727-3.898-11.178-5.826v56.41
		h-13.167v-6.82h-13.451v7.39H415.53v-77.014h9.994C427.354,110.498,428.634,105.478,429.36,101.625z M442.148,129.096h-13.451
		v16.197h13.451V129.096z M428.697,173.9h13.451v-16.197h-13.451V173.9z M470.188,141.031c4.548,5.431,9.44,12.029,14.684,19.797
		l-11.937,7.957c-4.8-7.893-9.378-14.618-13.734-20.176L470.188,141.031z"/>
	<path fill="#FFFFFF" d="M563.588,101.057h12.6v19.703l22.07-5.115l-0.427,17.855c-0.379,14.557-0.971,22.719-1.775,24.486
		c-0.806,1.77-1.871,3.261-3.196,4.477c-1.326,1.217-5.685,2.154-13.072,2.818c-0.885-4.168-1.927-8.367-3.126-12.6
		c1.389,0.127,2.636,0.188,3.741,0.188c1.926,0,3.182-0.165,3.766-0.497c0.584-0.331,0.979-0.805,1.185-1.421
		c0.205-0.615,0.387-2.597,0.544-5.943c0.158-3.346,0.237-8.178,0.237-14.493l-9.946,2.463v42.627h-12.599v-39.5l-8.81,2.178v37.512
		c0,3.537,2.084,5.305,6.252,5.305h18.565c2.336,0,4.264-0.313,5.778-0.947c1.516-0.631,2.511-1.719,2.983-3.268
		c0.475-1.547,1.12-5.287,1.941-11.225c5.115,2.21,9.378,3.979,12.788,5.305c-1.705,7.768-3.166,12.693-4.381,14.777
		c-1.216,2.084-2.874,3.693-4.974,4.83c-2.101,1.137-4.57,1.705-7.412,1.705h-27.944c-10.799,0-16.198-4.896-16.198-14.683v-36.233
		l-6.347,1.563l-0.711-3.127h-4.31v28.655l8.24-2.604c-0.188,2.651-0.188,7.104,0,13.354l-27.755,9.758l-2.463-14.115l9.378-2.651
		v-32.396h-7.389v-12.977h7.389v-25.576h12.6v25.576h5.493v3.173l5.873-1.374v-19.135h12.6v16.246l8.81-2.037L563.588,101.057
		L563.588,101.057z"/>
</g>
</svg>
