<?xml version="1.0" encoding="utf-8"?>
<!-- Generator: Adobe Illustrator 16.0.0, SVG Export Plug-In . SVG Version: 6.00 Build 0)  -->
<!DOCTYPE svg PUBLIC "-//W3C//DTD SVG 1.1//EN" "http://www.w3.org/Graphics/SVG/1.1/DTD/svg11.dtd">
<svg version="1.1" id="图层_1" xmlns="http://www.w3.org/2000/svg" xmlns:xlink="http://www.w3.org/1999/xlink" x="0px" y="0px"
	 width="164px" height="30px" viewBox="0 0 164 30" enable-background="new 0 0 164 30" xml:space="preserve">
<g>
	<g>
		<path fill="#FFFFFF" d="M36.594,19.438c0.209-0.24,0.374-0.385,0.466-0.572c0.449-0.871,0.882-1.748,1.31-2.631
			c0.626-1.294,1.24-2.599,1.877-3.898c0.562-1.139,1.145-2.278,1.733-3.406c0.416-0.786,1.102-1.192,1.973-1.091
			c1.481,0.171,2.957,0.423,4.438,0.642c1.197,0.176,2.406,0.326,3.599,0.524c0.69,0.112,1.391,0.214,2.038,0.449
			c1.005,0.364,1.268,1.342,1.551,2.241c0.256,0.834,0.449,1.695,0.663,2.545c0.155,0.594,0.31,1.188,0.454,1.781
			c0.454,1.855,0.894,3.711,1.364,5.562c0.31,1.219,0.684,2.417,1.01,3.637c0.198,0.732,0.348,1.48,0.524,2.224
			c0.075,0.273,0.166,0.541,0.251,0.808c0.209,0.695-0.085,1.124-0.807,1.124c-1.631-0.006-3.263-0.038-4.894-0.038
			c-1.021,0-2.011-0.6-2.246-1.722c-0.342-1.626-0.743-3.235-1.134-4.851c-0.197-0.818-0.438-1.631-0.652-2.449
			c-0.155-0.614-0.299-1.225-0.438-1.839c-0.32-1.444-0.625-2.888-0.946-4.327c-0.097-0.438-0.22-0.871-0.358-1.294
			c-0.048-0.154-0.182-0.385-0.294-0.391c-0.16-0.01-0.412,0.102-0.492,0.236c-0.277,0.486-0.514,1-0.743,1.513
			c-0.599,1.278-1.182,2.557-1.775,3.834c-0.476,1.038-0.968,2.075-1.454,3.107c-0.958,2.037-1.872,4.102-2.878,6.111
			c-0.994,1.995-3.203,2.99-5.342,2.455c-1.177-0.294-2.069-0.994-2.652-2.091c-0.72-1.337-1.503-2.646-2.232-3.979
			c-0.728-1.315-1.414-2.657-2.14-3.979c-0.593-1.085-1.222-2.155-1.817-3.241c-0.228-0.416-0.431-0.85-0.604-1.288
			c-0.147-0.369,0.04-0.663,0.345-0.855c1.748-1.07,3.503-2.145,5.262-3.204c0.5-0.305,0.937-0.091,1.23,0.519
			c0.765,1.562,1.54,3.107,2.299,4.668C35.583,17.288,36.059,18.311,36.594,19.438z"/>
		<path fill="#FFFFFF" d="M49.246,6.551c-0.866,0-1.738-0.005-2.604,0.005c-1.86,0.016-3.737-0.075-5.577,0.107
			c-1.438,0.139-2.855,0.599-4.262,0.968c-1.006,0.268-2.021,0.545-2.968,0.952c-1.455,0.631-2.861,1.364-4.273,2.091
			c-0.88,0.449-1.765,0.92-2.588,1.465c-1.602,1.064-3.232,2.08-4.629,3.434c-1.465,1.423-3.026,2.743-4.488,4.165
			c-0.888,0.867-1.701,1.818-2.49,2.781c-1.24,1.508-2.457,3.043-3.631,4.609c-0.519,0.689-0.954,1.471-1.751,1.861
			c-0.645,0.311-1.355,0.663-2.04,0.674c-2.396,0.053-4.795-0.032-7.19-0.07c-0.063,0-0.125-0.031-0.275-0.074
			c0.083-0.192,0.123-0.385,0.23-0.523c0.586-0.76,1.174-1.524,1.786-2.268c1.305-1.567,2.599-3.15,3.946-4.68
			c2.358-2.695,4.914-5.192,7.637-7.508c1.385-1.183,2.871-2.257,4.355-3.315c0.997-0.711,2.054-1.342,3.114-1.947
			c1.146-0.652,2.303-1.289,3.506-1.823c1.401-0.615,2.845-1.15,4.294-1.642c1.171-0.401,2.38-0.695,3.578-1.011
			c0.363-0.096,0.765-0.075,1.134-0.155c1.951-0.428,3.936-0.433,5.908-0.326c1.338,0.069,2.663,0.348,3.989,0.572
			c0.931,0.16,1.861,0.348,2.771,0.599c0.866,0.235,1.695,0.572,2.54,0.867C49.263,6.422,49.257,6.487,49.246,6.551z"/>
		<path fill="#FFFFFF" d="M25.934,30c-0.66-0.059-1.329-0.074-1.981-0.182c-1.08-0.192-1.851-0.823-2.358-1.797
			c-0.602-1.134-1.229-2.262-1.829-3.396c-0.489-0.94-0.949-1.897-1.433-2.839c-0.238-0.455-0.06-0.834,0.268-1.112
			c1.357-1.192,2.74-2.358,4.125-3.519c0.372-0.315,0.698-0.272,0.952,0.155c0.519,0.86,1.003,1.743,1.489,2.62
			c0.457,0.823,0.903,1.658,1.355,2.476c0.602,1.081,1.217,2.166,1.815,3.251c0.602,1.103,1.188,2.209,1.786,3.311
			c0.351,0.637,0.243,0.866-0.497,0.889c-1.228,0.036-2.457,0.01-3.688,0.01C25.938,29.909,25.937,29.957,25.934,30z"/>
		<path fill="#FFFFFF" d="M10.23,0.385c0.697,0,1.4,0.053,2.094-0.011c1.387-0.133,2.288,0.46,2.922,1.669
			c0.909,1.738,1.888,3.443,2.834,5.166c0.169,0.299,0.332,0.604,0.52,0.898c0.35,0.562,0.313,0.925-0.228,1.332
			c-1.062,0.792-2.142,1.567-3.209,2.348c-0.24,0.177-0.483,0.353-0.717,0.54c-0.759,0.615-1.114,0.529-1.574-0.337
			c-0.768-1.444-1.566-2.872-2.348-4.31C9.944,6.604,9.386,5.513,8.8,4.444C8.22,3.385,7.61,2.342,7.035,1.284
			C6.926,1.08,6.832,0.792,6.894,0.599c0.043-0.123,0.385-0.198,0.591-0.203C8.396,0.374,9.313,0.385,10.23,0.385z"/>
		<path fill="#FFFFFF" d="M24.492,0.128C26.083,0.118,27.145,1.005,28,2.225c0.265,0.375,0.477,0.792,0.701,1.193
			c0.262,0.47,0.023,0.888-0.578,1.144c-1.492,0.636-2.968,1.305-4.46,1.941c-0.486,0.204-0.986,0.391-1.491,0.551
			c-0.398,0.129-0.68-0.059-0.937-0.385c-0.646-0.808-0.933-1.749-1.016-2.754c-0.102-1.3,0.7-2.765,1.911-3.294
			c0.725-0.315,1.546-0.417,2.321-0.62C24.466,0.042,24.479,0.081,24.492,0.128z"/>
		<path fill="#FFFFFF" d="M49.166,0.112c1.775-0.128,2.855,0.786,3.68,2.204c0.566,1,0.77,2.096,1.096,3.166
			c0.059,0.187-0.016,0.412-0.032,0.62c-0.203-0.027-0.411-0.027-0.604-0.085c-1.438-0.465-2.878-0.931-4.311-1.406
			c-1.16-0.391-2.321-0.797-3.477-1.214c-0.417-0.15-0.347-0.503-0.197-0.792C46.14,1.027,47.311-0.016,49.166,0.112z"/>
	</g>
	<g>
		<g>
			<path fill="#FFFFFF" d="M70.1,4.599l2.623,0.578c-0.851,2.867-1.754,5.492-2.709,7.876l-2.588-0.897
				C68.449,9.716,69.343,7.198,70.1,4.599z M74.909,1.118h2.728v12.144c0,1.055-0.179,1.829-0.537,2.329
				c-0.358,0.502-0.818,0.797-1.383,0.888c-0.562,0.091-1.845,0.14-3.85,0.14c-0.177-0.915-0.391-1.757-0.647-2.538
				c0.933,0.096,1.749,0.145,2.446,0.145c0.829,0,1.243-0.443,1.243-1.332V1.118z M81.677,4.583c1.107,2.342,2.18,4.808,3.217,7.396
				l-2.763,0.979c-0.957-2.77-1.93-5.31-2.919-7.62L81.677,4.583z"/>
			<path fill="#FFFFFF" d="M87.244,6.957h7.294V1.021h2.446v5.936h7.329v2.021h-6.244c1.73,2,3.912,3.551,6.54,4.652
				c-0.724,0.695-1.393,1.391-2.011,2.088c-2.256-1.382-4.128-3.045-5.614-4.992v6.059h-2.446v-6.163
				c-1.452,1.829-3.398,3.57-5.843,5.225c-0.488-0.602-1.088-1.248-1.799-1.943c2.692-1.508,4.837-3.15,6.433-4.926h-6.085V6.957z
				 M90.218,1.808c1.154,1.166,2.156,2.24,3.007,3.224l-2.026,1.444c-0.863-1.048-1.855-2.192-2.974-3.434L90.218,1.808z
				 M103.212,3.123c-1.027,1.155-2.07,2.278-3.132,3.369l-1.871-1.428c1.014-1.059,1.981-2.149,2.903-3.272L103.212,3.123z"/>
			<path fill="#FFFFFF" d="M107.132,7.792h4.748c0.117-0.299,0.225-0.604,0.323-0.915h2.361c-0.089,0.311-0.182,0.615-0.281,0.915
				h9.672v1.685h-10.342c-0.129,0.278-0.269,0.551-0.412,0.818h9.267v1.38c-1.016,0.883-2.16,1.666-3.433,2.35
				c1.519,0.343,3.22,0.538,5.091,0.586c-0.428,0.706-0.813,1.398-1.149,2.069c-2.508-0.211-4.733-0.687-6.672-1.427
				c-1.817,0.692-3.85,1.237-6.096,1.62c-0.356-0.592-0.735-1.153-1.145-1.685c-0.35,0.285-0.714,0.564-1.093,0.831
				c-0.386-0.703-0.792-1.329-1.223-1.874c1.869-1.262,3.318-2.818,4.346-4.668h-3.963V7.792z M107.343,1.615
				c4.08,0.021,9.277-0.075,15.596-0.289l0.546,1.685l-2.434,0.056l1.258,0.682c-0.333,0.353-0.69,0.722-1.081,1.107h2.203V7.39
				h-2.417V6.54H110.02v0.85h-2.415V4.856h2.246c-0.232-0.375-0.452-0.695-0.654-0.963l1.659-0.642L107.92,3.3
				C107.792,2.84,107.6,2.278,107.343,1.615z M111.715,12.549c-0.701,0.871-1.5,1.684-2.404,2.438
				c1.649-0.246,3.147-0.559,4.491-0.938C113.052,13.604,112.355,13.104,111.715,12.549z M111.321,3.243
				c0.342,0.471,0.719,1.008,1.128,1.613h2.335c-0.212-0.38-0.447-0.771-0.709-1.172l1.625-0.521L111.321,3.243z M116.34,13.182
				c1.072-0.438,2.011-0.936,2.823-1.492h-5.508C114.441,12.277,115.337,12.775,116.34,13.182z M116.286,3.155
				c0.356,0.54,0.703,1.106,1.041,1.701h1.313c0.471-0.535,0.94-1.126,1.406-1.773L116.286,3.155z"/>
			<path fill="#FFFFFF" d="M126.864,15.345l-0.454-1.954l4.802-0.578c0.401-1.358,0.604-2.946,0.604-4.764V6.524
				c-0.936,1.567-1.684,2.722-2.257,3.465l1.872-0.161c-0.059,0.813-0.097,1.449-0.106,1.909c-1.728,0.085-3.054,0.214-3.989,0.385
				l-0.589-1.765c0.679-0.791,1.375-1.708,2.075-2.751c-0.642,0.038-1.251,0.088-1.818,0.152l-0.557-1.732
				c0.621-0.749,1.563-2.434,2.835-5.054l2.128,0.802c-1.187,2.021-2.048,3.391-2.588,4.107c0.31-0.005,0.689-0.016,1.14-0.032
				c0.208-0.342,0.422-0.695,0.63-1.059l1.225,0.433V2.481h4.439c-0.161-0.321-0.343-0.652-0.54-0.995l2.396-0.578
				c0.348,0.604,0.636,1.128,0.855,1.572h4.074v4.476h-9.197c0,0.327-0.006,0.647-0.011,0.963h9.401v7.059
				c0,0.474-0.086,0.848-0.252,1.126c-0.171,0.268-0.417,0.443-0.732,0.521c-0.315,0.075-1.069,0.139-2.251,0.182
				c-0.049-0.265-0.107-0.538-0.177-0.82h-1.011v-2.935h-1.054V16.2h-1.519v-3.147h-1.048v3.658h-1.732v-6.393
				c-0.311,3.021-0.963,5.176-1.958,6.468c-0.465-0.34-1.053-0.66-1.765-0.96c0.235-0.311,0.455-0.642,0.653-1L126.864,15.345z
				 M140.944,4.182h-7.102v1.075h7.102V4.182z M135.19,11.449h1.048V9.604h-1.048V11.449z M137.757,11.449h1.054V9.604h-1.054
				V11.449z M141.377,9.604h-1.048v1.845h1.048V9.604z M141.377,13.053h-1.048v1.894c0.503,0.038,0.802,0.005,0.904-0.097
				c0.096-0.102,0.144-0.229,0.144-0.385V13.053z"/>
			<path fill="#FFFFFF" d="M146.244,5.706h2.326V3.941c-0.69,0.064-1.386,0.118-2.08,0.16c-0.081-0.813-0.188-1.498-0.315-2.053
				c1.845-0.086,3.92-0.31,6.224-0.674l0.546,2.005c-0.711,0.118-1.423,0.222-2.134,0.313v2.013h1.995v1.91h-1.995v1.764
				l0.486-0.449c0.583,0.449,1.343,1.08,2.278,1.893l-1.556,1.379c-0.418-0.471-0.818-0.909-1.209-1.315v5.984h-2.24v-6.185
				c-0.428,1.203-0.963,2.35-1.589,3.442c-0.225-0.92-0.502-1.818-0.84-2.696c0.771-0.979,1.466-2.251,2.097-3.818h-1.994V5.706z
				 M152.158,14.514h4.615v-1.38h-3.428v-1.797h3.428v-1.332h-3.743V8.145h10.074v1.861h-3.936v1.332h3.459v1.797h-3.459v1.38h4.353
				v1.858h-11.363V14.514z M153.415,1.647h9.112v5.391h-9.112V1.647z M160.201,3.508h-4.46v1.668h4.46V3.508z"/>
		</g>
		<g>
			<path fill="#FFFFFF" d="M76.746,23.032l-1.711,5.914h-1.813l-0.909-3.551c-0.062-0.24-0.094-0.481-0.097-0.732H72.18
				c-0.024,0.283-0.062,0.519-0.112,0.711l-0.979,3.572h-1.792l-1.684-5.914h1.764l0.861,3.925c0.035,0.155,0.064,0.374,0.086,0.647
				h0.037c0.019-0.262,0.051-0.486,0.102-0.669l1.059-3.903h1.637l0.946,3.93c0.024,0.107,0.052,0.327,0.081,0.653h0.042
				c0.011-0.188,0.04-0.407,0.091-0.653l0.824-3.93H76.746z"/>
			<path fill="#FFFFFF" d="M86.73,23.032l-1.711,5.914h-1.813l-0.909-3.551c-0.061-0.24-0.093-0.481-0.096-0.732h-0.037
				c-0.024,0.283-0.063,0.519-0.113,0.711l-0.979,3.572h-1.791l-1.685-5.914h1.765l0.861,3.925c0.035,0.155,0.064,0.374,0.086,0.647
				h0.037c0.019-0.262,0.051-0.486,0.102-0.669l1.059-3.903h1.637l0.945,3.93c0.025,0.107,0.052,0.327,0.081,0.653h0.042
				c0.012-0.188,0.041-0.407,0.092-0.653l0.823-3.93H86.73z"/>
			<path fill="#FFFFFF" d="M96.715,23.032l-1.712,5.914H93.19l-0.909-3.551c-0.062-0.24-0.094-0.481-0.096-0.732h-0.038
				c-0.024,0.283-0.062,0.519-0.112,0.711l-0.979,3.572h-1.792l-1.685-5.914h1.766l0.86,3.925c0.035,0.155,0.064,0.374,0.086,0.647
				h0.037c0.019-0.262,0.051-0.486,0.102-0.669l1.059-3.903h1.637l0.947,3.93c0.023,0.107,0.05,0.327,0.08,0.653h0.043
				c0.01-0.188,0.04-0.407,0.09-0.653l0.824-3.93H96.715z"/>
			<path fill="#FFFFFF" d="M97.519,28.171c0-0.267,0.103-0.486,0.305-0.658c0.204-0.17,0.447-0.256,0.728-0.256
				c0.286,0,0.526,0.086,0.723,0.262c0.195,0.177,0.294,0.391,0.294,0.652c0,0.273-0.099,0.497-0.294,0.669
				c-0.196,0.166-0.444,0.251-0.743,0.251c-0.279,0-0.517-0.085-0.714-0.262C97.618,28.652,97.519,28.433,97.519,28.171z"/>
			<path fill="#FFFFFF" d="M107.112,23.032l-1.957,2.882l1.941,3.032h-1.995l-0.882-1.631c-0.121-0.225-0.206-0.4-0.251-0.529
				h-0.022c-0.063,0.171-0.144,0.342-0.24,0.514l-0.897,1.646h-1.985l2.001-2.94l-1.883-2.974h2l0.877,1.7
				c0.086,0.166,0.166,0.348,0.24,0.546h0.022c0.035-0.123,0.117-0.305,0.246-0.551l0.903-1.695H107.112z"/>
			<path fill="#FFFFFF" d="M117.898,28.946h-1.722v-3.374c0-0.903-0.329-1.358-0.989-1.358c-0.308,0-0.562,0.14-0.765,0.411
				c-0.203,0.273-0.305,0.61-0.305,1.007v3.314h-1.723v-3.417c0-0.877-0.325-1.315-0.979-1.315c-0.322,0-0.582,0.134-0.777,0.391
				c-0.195,0.267-0.292,0.609-0.292,1.043v3.299h-1.727v-5.914h1.727v0.925h0.021c0.206-0.337,0.481-0.604,0.824-0.786
				c0.342-0.192,0.703-0.283,1.079-0.283c0.832,0,1.399,0.374,1.706,1.117c0.457-0.743,1.121-1.117,1.99-1.117
				c1.285,0,1.93,0.797,1.93,2.385V28.946z"/>
			<path fill="#FFFFFF" d="M120.18,23.391c0.267-0.149,0.62-0.272,1.069-0.364c0.449-0.09,0.829-0.139,1.145-0.139
				c1.657,0,2.481,0.828,2.481,2.486v3.572h-1.637v-0.86h-0.021c-0.407,0.668-0.996,1.005-1.775,1.005
				c-0.557,0-1.007-0.16-1.343-0.477c-0.337-0.32-0.509-0.753-0.509-1.304c0-1.134,0.68-1.792,2.033-1.979l1.625-0.22
				c0-0.689-0.364-1.032-1.08-1.032c-0.706,0-1.369,0.214-1.989,0.642V23.391z M122.126,26.268c-0.62,0.08-0.93,0.363-0.93,0.845
				c0,0.219,0.074,0.4,0.224,0.535c0.15,0.134,0.354,0.203,0.609,0.203c0.354,0,0.647-0.123,0.878-0.374
				c0.224-0.252,0.342-0.562,0.342-0.931v-0.423L122.126,26.268z"/>
			<path fill="#FFFFFF" d="M128.741,28.235v0.711h-1.728v-8.754h1.728v3.743h0.021c0.455-0.7,1.096-1.048,1.936-1.048
				c0.743,0,1.326,0.262,1.754,0.781c0.417,0.519,0.632,1.24,0.632,2.155c0,0.979-0.241,1.77-0.728,2.368
				c-0.487,0.599-1.129,0.898-1.932,0.898c-0.732,0-1.288-0.283-1.662-0.855H128.741z M128.714,26.391
				c0,0.39,0.118,0.717,0.348,0.979c0.23,0.262,0.524,0.396,0.883,0.396c0.434,0,0.765-0.165,1.011-0.503
				c0.235-0.336,0.358-0.808,0.358-1.422c0-0.508-0.112-0.909-0.326-1.192c-0.225-0.289-0.535-0.434-0.941-0.434
				c-0.385,0-0.705,0.145-0.951,0.434c-0.258,0.288-0.381,0.657-0.381,1.112V26.391z"/>
			<path fill="#FFFFFF" d="M139.398,28.728c-0.411,0.24-0.999,0.363-1.765,0.363c-0.903,0-1.631-0.272-2.188-0.823
				c-0.556-0.551-0.833-1.263-0.833-2.134c0-1.006,0.299-1.797,0.897-2.374c0.599-0.583,1.396-0.872,2.396-0.872
				c0.674,0,1.171,0.091,1.497,0.277v1.482c-0.396-0.289-0.829-0.434-1.294-0.434c-0.53,0-0.952,0.16-1.273,0.481
				c-0.315,0.321-0.476,0.76-0.476,1.32c0,0.541,0.15,0.969,0.455,1.284c0.305,0.31,0.716,0.465,1.235,0.465
				c0.459,0,0.909-0.145,1.347-0.438V28.728z"/>
			<path fill="#FFFFFF" d="M141.03,28.171c0-0.267,0.101-0.486,0.305-0.658c0.203-0.17,0.443-0.256,0.727-0.256
				c0.284,0,0.524,0.086,0.722,0.262c0.198,0.177,0.295,0.391,0.295,0.652c0,0.273-0.097,0.497-0.295,0.669
				c-0.197,0.166-0.443,0.251-0.743,0.251c-0.277,0-0.518-0.085-0.711-0.262C141.126,28.652,141.03,28.433,141.03,28.171z"/>
			<path fill="#FFFFFF" d="M150.688,28.946h-1.717v-3.299c0-0.958-0.342-1.434-1.032-1.434c-0.326,0-0.598,0.129-0.817,0.38
				c-0.22,0.257-0.326,0.582-0.326,0.979v3.374h-1.728v-5.914h1.728v0.941h0.021c0.434-0.722,1.064-1.086,1.904-1.086
				c1.311,0,1.968,0.813,1.968,2.438V28.946z"/>
			<path fill="#FFFFFF" d="M158.072,26.476h-3.893c0.059,0.914,0.614,1.375,1.657,1.375c0.652,0,1.23-0.161,1.728-0.481v1.268
				c-0.54,0.305-1.246,0.454-2.117,0.454c-0.941,0-1.674-0.267-2.193-0.797c-0.523-0.529-0.786-1.272-0.786-2.219
				c0-0.947,0.278-1.712,0.835-2.306c0.556-0.587,1.257-0.882,2.096-0.882c0.84,0,1.493,0.251,1.963,0.765
				c0.476,0.503,0.711,1.203,0.711,2.091V26.476z M156.463,25.396c0-0.883-0.358-1.326-1.075-1.326
				c-0.294,0-0.556,0.123-0.786,0.363c-0.229,0.241-0.369,0.562-0.428,0.963H156.463z"/>
			<path fill="#FFFFFF" d="M163.335,28.877c-0.262,0.145-0.653,0.214-1.182,0.214c-1.257,0-1.883-0.658-1.883-1.979V24.32h-0.974
				v-1.288h0.974v-1.3l1.717-0.492v1.792h1.348v1.288h-1.348v2.492c0,0.631,0.251,0.946,0.748,0.946c0.192,0,0.391-0.059,0.6-0.17
				V28.877z"/>
		</g>
	</g>
</g>
</svg>
